<?xml version="1.0" encoding="UTF-8" standalone="no"?>
<svg
   width="120"
   height="60"
   version="1.1"
   id="svg3"
   sodipodi:docname="binance.svg"
   inkscape:version="1.3 (0e150ed6c4, 2023-07-21)"
   xmlns:inkscape="http://www.inkscape.org/namespaces/inkscape"
   xmlns:sodipodi="http://sodipodi.sourceforge.net/DTD/sodipodi-0.dtd"
   xmlns="http://www.w3.org/2000/svg"
   xmlns:svg="http://www.w3.org/2000/svg">
  <defs
     id="defs3" />
  <sodipodi:namedview
     id="namedview3"
     pagecolor="#ffffff"
     bordercolor="#000000"
     borderopacity="0.25"
     inkscape:showpageshadow="2"
     inkscape:pageopacity="0.0"
     inkscape:pagecheckerboard="0"
     inkscape:deskcolor="#d1d1d1"
     showguides="true"
     inkscape:zoom="0.98258377"
     inkscape:cx="120.09154"
     inkscape:cy="74.802782"
     inkscape:window-width="1920"
     inkscape:window-height="1017"
     inkscape:window-x="-8"
     inkscape:window-y="-8"
     inkscape:window-maximized="1"
     inkscape:current-layer="svg3" />
  <path
     style="display:inline;opacity:1;fill:#f3ba2f;fill-opacity:1;stroke:none;stroke-width:0.994365;stroke-linejoin:round;stroke-miterlimit:4;stroke-dasharray:none"
     d="m 46.934047,215.41785 c -3.435449,0 -6.201292,1.38292 -6.201292,3.10064 v 9.67371 c 0,1.71773 2.765843,3.10065 6.201292,3.10065 h 19.347417 c 3.435444,0 6.201291,-1.38292 6.201291,-3.10065 v -9.67371 c 0,-1.71772 -2.765847,-3.10064 -6.201291,-3.10064 z"
     id="path38"
     sodipodi:nodetypes="sssssssss"
     transform="matrix(3.7795276,0,0,3.7795276,-153.95058,-814.17771)" />
  <path
     style="display:inline;opacity:1;fill:#4d4d4d;fill-opacity:1;stroke:none;stroke-width:3.46718;stroke-linejoin:round;stroke-miterlimit:4;stroke-dasharray:none"
     d="m 27.18018,2.1926348 c -11.9429,0 -21.5579994,4.8365184 -21.5579994,10.8439402 v 33.832093 c 0,6.007456 9.6150994,10.843976 21.5579994,10.843976 h 67.258822 c 11.942878,0 21.557988,-4.83652 21.557988,-10.843976 V 13.036575 c 0,-6.0074218 -9.61511,-10.8439402 -21.557988,-10.8439402 z"
     id="rect443-0"
     inkscape:connector-curvature="0"
     sodipodi:nodetypes="sssssssss" />
  <path
     id="rect443"
     style="display:inline;opacity:0.15;fill:#ffffff;fill-opacity:1;stroke:none;stroke-width:0.994365;stroke-linejoin:round;stroke-miterlimit:4;stroke-dasharray:none"
     d="M 70.669948 216.32425 L 42.545566 230.38645 C 43.666425 230.94677 45.216415 231.29285 46.933929 231.29285 L 66.281585 231.29285 C 69.717026 231.29285 72.482757 229.90999 72.482757 228.19226 L 72.482757 218.51844 C 72.482757 217.65958 71.791356 216.8847 70.670464 216.32425 C 70.670328 216.32419 70.670084 216.32432 70.669948 216.32425 z "
     transform="matrix(3.7795276,0,0,3.7795276,-153.95058,-814.17771)" />
  <g
     fill="#f3ba2f"
     id="g13"
     transform="matrix(0.16548077,0,0,0.16548077,7.6216231,19.52424)">
    <path
       d="M 38.72,53.2 63.31,28.62 87.91,53.22 102.21,38.91 63.31,0 24.41,38.9 Z"
       id="path1" />
    <path
       d="M 3.64,53.19 H 23.87 V 73.42 H 3.64 Z"
       transform="rotate(-45,14.029909,62.648622)"
       id="path2" />
    <path
       d="M 38.72,73.41 63.31,98 87.91,73.4 102.22,87.69 102.21,87.7 63.31,126.61 24.41,87.72 24.39,87.7 Z"
       id="path3" />
    <path
       d="m 101.64,53.19 h 20.23 v 20.23 h -20.23 z"
       transform="rotate(-45,112.03241,62.654657)"
       id="path4" />
    <path
       d="M 77.82,63.3 63.31,48.78 52.58,59.51 l -1.24,1.23 -2.54,2.54 -0.02,0.02 0.02,0.03 14.51,14.5 14.51,-14.52 0.01,-0.01 z"
       id="path5" />
    <g
       transform="translate(0.55)"
       id="g12">
      <path
         d="m 148.37,30.68 h 31.12 q 11.58,0 17.52,6 A 15.5,15.5 0 0 1 201.6,48 v 0.19 a 16.67,16.67 0 0 1 -0.71,5.08 15.6,15.6 0 0 1 -1.91,4 14.77,14.77 0 0 1 -2.76,3.12 17.92,17.92 0 0 1 -3.39,2.3 22.66,22.66 0 0 1 9.17,6 q 3.34,3.8 3.34,10.5 v 0.19 a 17.44,17.44 0 0 1 -1.77,8.06 15.72,15.72 0 0 1 -5.07,5.76 24.05,24.05 0 0 1 -7.95,3.45 42.7,42.7 0 0 1 -10.29,1.15 h -31.89 z m 28,27.14 a 15.39,15.39 0 0 0 7.77,-1.68 5.8,5.8 0 0 0 2.86,-5.42 v -0.19 a 5.93,5.93 0 0 0 -2.49,-5.13 q -2.49,-1.77 -7.19,-1.77 h -14.56 v 14.19 z m 3.93,27.05 a 14.2,14.2 0 0 0 7.7,-1.77 6.08,6.08 0 0 0 2.78,-5.52 v -0.19 a 6.31,6.31 0 0 0 -2.59,-5.32 q -2.58,-2 -8.34,-2 h -17.09 v 14.8 z"
         id="path6" />
      <path
         d="m 223.88,30.68 h 14.77 v 67.14 h -14.77 z"
         id="path7" />
      <path
         d="m 261,30.68 h 13.62 L 306.1,72 V 30.68 h 14.58 V 97.82 H 308.11 L 275.6,55.14 V 97.82 H 261 Z"
         id="path8" />
      <path
         d="M 365.4,30.2 H 379 l 28.77,67.62 h -15.42 l -6.14,-15.06 h -28.39 l -6.14,15.06 H 336.62 Z M 380.94,69.72 372,47.94 363.1,69.72 Z"
         id="path9" />
      <path
         d="m 423.74,30.68 h 13.62 L 468.82,72 V 30.68 H 483.4 V 97.82 H 470.83 L 438.32,55.14 v 42.68 h -14.58 z"
         id="path10" />
      <path
         d="M 536.56,99 A 34.93,34.93 0 0 1 522.84,96.32 33.17,33.17 0 0 1 504.71,78 35.54,35.54 0 0 1 502.12,64.47 v -0.19 a 34.84,34.84 0 0 1 9.79,-24.51 33.23,33.23 0 0 1 11,-7.48 35.9,35.9 0 0 1 14.19,-2.73 44.49,44.49 0 0 1 8.58,0.77 35.66,35.66 0 0 1 7.06,2.11 30.5,30.5 0 0 1 5.85,3.26 39.52,39.52 0 0 1 5,4.22 l -9.39,10.84 a 35.71,35.71 0 0 0 -8,-5.57 20.47,20.47 0 0 0 -9.16,-2 18.58,18.58 0 0 0 -14,6.14 21.09,21.09 0 0 0 -4.04,6.67 22.87,22.87 0 0 0 -1.43,8.11 v 0.19 a 23.21,23.21 0 0 0 1.43,8.1 21.32,21.32 0 0 0 4,6.71 18.46,18.46 0 0 0 14,6.24 20.52,20.52 0 0 0 9.73,-2.11 37.62,37.62 0 0 0 7.91,-5.76 l 9.4,9.5 a 47.93,47.93 0 0 1 -5.37,5 32,32 0 0 1 -6.09,3.79 31.56,31.56 0 0 1 -7.24,2.39 43.11,43.11 0 0 1 -8.78,0.84 z"
         id="path11" />
      <path
         d="M 581.47,30.68 H 632 v 13.14 h -36 v 13.62 h 31.7 v 13.14 h -31.65 v 14.1 h 36.45 v 13.14 h -51 z"
         id="path12" />
    </g>
  </g>
</svg>
