<?xml version="1.0" encoding="UTF-8" standalone="no"?>
<!-- Created with Inkscape (http://www.inkscape.org/) -->

<svg
   width="100"
   height="100"
   viewBox="0 0 26.458333 26.458333"
   version="1.1"
   id="svg1"
   inkscape:version="1.3 (0e150ed6c4, 2023-07-21)"
   sodipodi:docname="bitcoin.svg"
   xmlns:inkscape="http://www.inkscape.org/namespaces/inkscape"
   xmlns:sodipodi="http://sodipodi.sourceforge.net/DTD/sodipodi-0.dtd"
   xmlns="http://www.w3.org/2000/svg"
   xmlns:svg="http://www.w3.org/2000/svg">
  <sodipodi:namedview
     id="namedview1"
     pagecolor="#ffffff"
     bordercolor="#000000"
     borderopacity="0.25"
     inkscape:showpageshadow="2"
     inkscape:pageopacity="0.0"
     inkscape:pagecheckerboard="0"
     inkscape:deskcolor="#d1d1d1"
     inkscape:document-units="mm"
     inkscape:zoom="4.1373683"
     inkscape:cx="76.618754"
     inkscape:cy="70.697115"
     inkscape:window-width="1920"
     inkscape:window-height="1017"
     inkscape:window-x="-8"
     inkscape:window-y="-8"
     inkscape:window-maximized="1"
     inkscape:current-layer="layer1" />
  <defs
     id="defs1" />
  <g
     inkscape:label="Camada 1"
     inkscape:groupmode="layer"
     id="layer1">
    <g
       id="g23"
       style="overflow:hidden;fill:currentColor"
       transform="matrix(0.1299755,0,0,0.12997806,-11.310956,-13.769381)">
      <path
         d="m 188.81376,105.93619 c -56.218,0 -101.790001,45.566 -101.790001,101.776 0,56.218 45.570001,101.784 101.790001,101.784 56.204,0 101.774,-45.566 101.774,-101.784 0,-56.21 -45.57,-101.776 -101.774,-101.776 z"
         fill="#330D84"
         id="path17-9"
         style="overflow:hidden;fill:#ffbe1b;fill-opacity:1" />
      <path
         d="m 188.81376,131.31819 c -42.196,0 -76.402,34.202 -76.402,76.396 0,42.196 34.208,76.402 76.402,76.402 42.188,0 76.394,-34.206 76.394,-76.402 0.002,-42.194 -34.206,-76.396 -76.394,-76.396 z"
         fill="#5932AE"
         id="path18-5"
         style="overflow:hidden;fill:#ffe37b;fill-opacity:1" />
      <path
         d="m 219.60776,212.48319 c -2.71,-3.142 -6.376,-5.214 -10.968,-6.208 1.274,-0.56 2.156,-0.966 2.644,-1.218 0.504,-0.24 1.378,-0.864 2.656,-1.854 3.75,-2.826 5.622,-7.136 5.622,-12.932 0,-4.814 -1.66,-9.122 -4.988,-12.934 -1.836,-2.056 -4.578,-3.678 -8.218,-4.882 a 30.172,30.172 0 0 0 -3.464,-0.898 v -9.426 h -13.008 v 8.518 h -8.714 v -8.518 h -13.008 v 8.518 h -14.242 v 14 h 10.61 v 46.126 h -10.61 v 14 h 14.242 v 8.528 h 13.008 v -8.528 h 8.714 v 8.528 h 13.008 v -8.846 c 7.07,-0.762 12.258,-2.932 15.5,-6.57 3.536,-3.958 5.308,-8.52 5.308,-13.684 -0.004,-4.666 -1.374,-8.57 -4.092,-11.72 z m -38.54,-27.834 h 7.954 c 4.872,0 8.348,0.534 10.386,1.588 2.05,1.062 3.078,3.234 3.078,6.524 0,3.284 -1.114,5.426 -3.336,6.414 -2.222,0.99 -5.644,1.486 -10.238,1.486 h -7.844 z m 22.004,44.374 c -2.368,1.172 -5.926,1.752 -10.664,1.752 h -11.34 v -17.068 h 9.758 c 5.504,0 9.52,0.548 12.032,1.64 2.508,1.096 3.766,3.36 3.766,6.79 -0.002,3.424 -1.184,5.722 -3.552,6.886 z"
         fill="#ffffff"
         id="path5"
         style="fill:#ffffff;fill-opacity:1" />
    </g>
  </g>
</svg>
