<?xml version="1.0" encoding="UTF-8" standalone="no"?>
<!-- Created with Inkscape (http://www.inkscape.org/) -->

<svg
   width="90"
   height="90"
   viewBox="0 0 23.812499 23.8125"
   version="1.1"
   id="svg1"
   inkscape:version="1.3 (0e150ed6c4, 2023-07-21)"
   sodipodi:docname="brave_90x90.svg"
   xmlns:inkscape="http://www.inkscape.org/namespaces/inkscape"
   xmlns:sodipodi="http://sodipodi.sourceforge.net/DTD/sodipodi-0.dtd"
   xmlns="http://www.w3.org/2000/svg"
   xmlns:svg="http://www.w3.org/2000/svg">
  <sodipodi:namedview
     id="namedview1"
     pagecolor="#ffffff"
     bordercolor="#000000"
     borderopacity="0.25"
     inkscape:showpageshadow="2"
     inkscape:pageopacity="0.0"
     inkscape:pagecheckerboard="0"
     inkscape:deskcolor="#d1d1d1"
     inkscape:document-units="mm"
     inkscape:zoom="0.73139029"
     inkscape:cx="396.50513"
     inkscape:cy="561.25984"
     inkscape:window-width="1920"
     inkscape:window-height="1017"
     inkscape:window-x="-8"
     inkscape:window-y="-8"
     inkscape:window-maximized="1"
     inkscape:current-layer="layer1" />
  <defs
     id="defs1">
    <linearGradient
       id="a"
       x1="1.37598"
       x2="113.245"
       y1="131.867"
       y2="131.867"
       gradientUnits="userSpaceOnUse">
      <stop
         offset="0"
         stop-color="#F50"
         id="stop4" />
      <stop
         offset="0.409877"
         stop-color="#F50"
         id="stop5" />
      <stop
         offset="0.581981"
         stop-color="#FF2000"
         id="stop6" />
      <stop
         offset="1"
         stop-color="#FF2000"
         id="stop7" />
    </linearGradient>
    <linearGradient
       id="b"
       x1="12.8796"
       x2="103.736"
       y1="23.5077"
       y2="23.5077"
       gradientUnits="userSpaceOnUse">
      <stop
         offset="0"
         stop-color="#FF452A"
         id="stop8" />
      <stop
         offset="1"
         stop-color="#FF2000"
         id="stop9" />
    </linearGradient>
  </defs>
  <g
     inkscape:label="Camada 1"
     inkscape:groupmode="layer"
     id="layer1">
    <g
       id="g9"
       transform="matrix(0.18185394,0,0,0.18185394,1.4841116,-2.3271e-7)">
      <path
         fill="url(#a)"
         fill-rule="evenodd"
         d="m 109.329,31.4116 3.077,-7.5378 c 0,0 -3.916,-4.1876 -8.67,-8.9336 -4.7545,-4.746 -14.8227,-1.9543 -14.8227,-1.9543 L 77.4468,0 H 57.3104 37.174 L 25.7074,12.9859 c 0,0 -10.0681,-2.7917 -14.8226,1.9543 -4.7544,4.746 -8.66981,8.9336 -8.66981,8.9336 l 3.0764,7.5378 -3.91541,11.1671 c 0,0 11.51552,43.5391 12.86492,48.856 2.6569,10.4693 4.4747,14.5173 12.0259,19.8213 7.5511,5.305 21.2551,14.517 23.4925,15.913 2.2373,1.396 5.034,3.774 7.5511,3.774 2.517,0 5.3138,-2.378 7.5511,-3.774 2.2374,-1.396 15.9414,-10.608 23.4925,-15.913 7.5511,-5.304 9.369,-9.352 12.026,-19.8213 1.349,-5.3169 12.865,-48.856 12.865,-48.856 z"
         clip-rule="evenodd"
         id="path2"
         style="fill:url(#a)" />
      <path
         fill="#ffffff"
         fill-rule="evenodd"
         d="m 71.5745,23.5947 c 1.6781,0 14.1235,-2.373 14.1235,-2.373 0,0 14.749,17.7975 14.749,21.6013 0,3.145 -1.2685,4.376 -2.7622,5.8257 -0.3129,0.3037 -0.6357,0.6169 -0.9588,0.9594 L 85.6672,61.3305 c -0.1096,0.1162 -0.2316,0.2387 -0.3608,0.3683 -1.1038,1.1079 -2.7293,2.7394 -1.5823,5.4489 0.0766,0.1811 0.1555,0.3652 0.2355,0.552 1.2576,2.9357 2.8099,6.5596 0.8339,10.2321 -2.102,3.9062 -5.7028,6.5134 -8.0101,6.0824 -2.3073,-0.4313 -7.7259,-3.258 -9.7186,-4.5492 -1.9926,-1.2912 -8.3082,-6.4906 -8.3082,-8.48 0,-1.6592 4.542,-4.4194 6.7488,-5.7605 0.4389,-0.2668 0.7855,-0.4774 0.9856,-0.612 0.2278,-0.1532 0.6088,-0.3895 1.0777,-0.6803 2.0143,-1.2493 5.6512,-3.5048 5.7426,-4.5049 0.1124,-1.2331 0.0697,-1.5946 -1.5538,-4.641 -0.3453,-0.6478 -0.7492,-1.3417 -1.1667,-2.0588 -1.546,-2.6552 -3.2771,-5.6284 -2.8939,-7.7582 0.4326,-2.4042 4.2064,-3.7826 7.4031,-4.9502 0.3995,-0.146 0.79,-0.2886 1.1638,-0.4295 0.9329,-0.3517 2.1052,-0.79 3.3297,-1.2479 3.1916,-1.1934 6.7377,-2.5193 7.3225,-2.7885 0.8096,-0.3727 0.6004,-0.7275 -1.8515,-0.9595 -0.3243,-0.0307 -0.7276,-0.0735 -1.1905,-0.1226 -3.0352,-0.322 -8.633,-0.9158 -11.3544,-0.1585 -0.5353,0.1489 -1.1353,0.3111 -1.7645,0.4812 -3.0576,0.8265 -6.8046,1.8394 -7.1646,2.4233 -0.063,0.1022 -0.1249,0.19 -0.1833,0.2729 -0.3444,0.4887 -0.569,0.8073 -0.1878,2.8838 0.1134,0.6183 0.3467,1.8346 0.6351,3.3385 0.8446,4.4033 2.162,11.2719 2.328,12.8149 0.0232,0.216 0.0488,0.4244 0.0734,0.6249 0.2113,1.7215 0.3519,2.867 -1.6508,3.3241 -0.1667,0.038 -0.3418,0.0782 -0.5238,0.1199 -2.2599,0.5176 -5.573,1.2765 -6.77,1.2765 -1.1976,0 -4.5133,-0.7595 -6.773,-1.2772 -0.1809,-0.0415 -0.3551,-0.0814 -0.5209,-0.1192 -2.0029,-0.4571 -1.8623,-1.6027 -1.651,-3.3242 0.0246,-0.2005 0.0501,-0.4088 0.0734,-0.6248 0.1664,-1.5452 1.4871,-8.4307 2.3316,-12.8332 0.2869,-1.4954 0.5188,-2.7044 0.6318,-3.3202 0.3809,-2.0763 0.1564,-2.395 -0.1878,-2.8836 -0.0585,-0.083 -0.1203,-0.1709 -0.1833,-0.2731 -0.36,-0.5839 -4.1068,-1.5967 -7.1643,-2.4232 -0.6294,-0.1701 -1.2296,-0.3324 -1.7651,-0.4813 -2.7213,-0.7572 -8.3186,-0.1635 -11.3539,0.1585 -0.4631,0.0491 -0.8665,0.0919 -1.1911,0.1226 -2.4516,0.232 -2.6608,0.5868 -1.8514,0.9595 0.5848,0.2691 4.1291,1.5944 7.32,2.7875 1.2255,0.4582 2.3989,0.8969 3.3324,1.2489 0.374,0.141 0.7647,0.2837 1.1644,0.4297 3.1964,1.1676 6.97,2.546 7.4026,4.95 0.3831,2.1295 -1.3476,5.1021 -2.8933,7.757 -0.4177,0.7175 -0.822,1.4118 -1.1673,2.06 -1.6235,3.0464 -1.6666,3.4079 -1.5539,4.641 0.0912,0.9999 3.7269,3.2548 5.7413,4.5041 0.4694,0.2912 0.8508,0.5278 1.0788,0.6811 0.2,0.1345 0.5462,0.3449 0.9847,0.6114 2.2066,1.3409 6.7497,4.1017 6.7497,5.7611 0,1.9894 -6.3153,7.1888 -8.308,8.48 -1.9926,1.2912 -7.4113,4.1179 -9.7186,4.5492 -2.3073,0.431 -5.9081,-2.1762 -8.0101,-6.0824 -1.9758,-3.6722 -0.4238,-7.2958 0.8334,-10.2314 0.0801,-0.1871 0.1591,-0.3714 0.2358,-0.5527 1.1471,-2.7098 -0.4787,-4.3414 -1.5827,-5.4493 -0.129,-0.1295 -0.2509,-0.2518 -0.3604,-0.3679 -0.605,-0.6414 -3.5856,-3.8008 -6.3523,-6.7335 -2.0169,-2.1378 -3.9201,-4.1552 -4.7065,-4.9889 -0.3231,-0.3424 -0.6458,-0.6556 -0.9586,-0.9592 -1.4937,-1.4498 -2.7619,-2.6808 -2.7619,-5.8259 0,-3.8038 14.7488,-21.6013 14.7488,-21.6013 0,0 12.4454,2.373 14.1234,2.373 1.339,0 3.9246,-0.8888 6.6199,-1.8154 0.6824,-0.2346 1.3719,-0.4716 2.0499,-0.6972 3.3561,-1.1167 5.5935,-1.1248 5.5935,-1.1248 0,0 2.2374,0.0081 5.5934,1.1248 0.6781,0.2256 1.3676,0.4626 2.05,0.6972 2.6953,0.9266 5.2808,1.8154 6.6198,1.8154 z m -2.1357,62.952 c 2.6308,1.3532 4.4971,2.3133 5.2028,2.7541 0.9128,0.5706 0.356,1.6463 -0.4755,2.2331 -0.8317,0.5868 -12.0077,9.2261 -13.0922,10.1801 -0.1388,0.123 -0.286,0.255 -0.4393,0.393 -1.0451,0.94 -2.3781,2.14 -3.3232,2.14 -0.9454,0 -2.2793,-1.201 -3.3245,-2.141 -0.1528,-0.138 -0.2995,-0.27 -0.4379,-0.392 -1.0849,-0.954 -12.2605,-9.5933 -13.0923,-10.1801 -0.8317,-0.5868 -1.3883,-1.6625 -0.4754,-2.2331 0.7061,-0.4411 2.5742,-1.402 5.2076,-2.7566 0.772,-0.3971 1.6097,-0.828 2.5032,-1.2896 3.9409,-2.0357 8.8527,-3.7666 9.6193,-3.7666 0.7666,0 5.6782,1.7309 9.6196,3.7666 0.8953,0.4626 1.7346,0.8943 2.5078,1.2921 z"
         clip-rule="evenodd"
         id="path3" />
      <path
         fill="url(#b)"
         fill-rule="evenodd"
         d="M 88.9133,12.9859 77.4467,0 H 57.3103 37.1739 L 25.7074,12.9859 c 0,0 -10.0682,-2.7917 -14.8226,1.9543 0,0 13.4242,-1.2097 18.0388,6.2814 0,0 12.4454,2.3731 14.1235,2.3731 1.678,0 5.3137,-1.3959 8.6698,-2.5126 3.3561,-1.1167 5.5934,-1.1248 5.5934,-1.1248 0,0 2.2374,0.0081 5.5935,1.1248 3.356,1.1167 6.9918,2.5126 8.6698,2.5126 1.678,0 14.1234,-2.3731 14.1234,-2.3731 4.6146,-7.4911 18.039,-6.2814 18.039,-6.2814 -4.7545,-4.746 -14.8227,-1.9543 -14.8227,-1.9543"
         clip-rule="evenodd"
         id="path4"
         style="fill:url(#b)" />
    </g>
  </g>
</svg>
