<?xml version="1.0" encoding="UTF-8" standalone="no"?>
<!-- Created with Inkscape (http://www.inkscape.org/) -->

<svg
   width="30"
   height="30"
   viewBox="0 0 7.9374999 7.9374999"
   version="1.1"
   id="svg1"
   inkscape:version="1.4 (86a8ad7, 2024-10-11)"
   sodipodi:docname="ronin_logo.svg"
   xml:space="preserve"
   xmlns:inkscape="http://www.inkscape.org/namespaces/inkscape"
   xmlns:sodipodi="http://sodipodi.sourceforge.net/DTD/sodipodi-0.dtd"
   xmlns="http://www.w3.org/2000/svg"
   xmlns:svg="http://www.w3.org/2000/svg"><sodipodi:namedview
     id="namedview1"
     pagecolor="#ffffff"
     bordercolor="#000000"
     borderopacity="0.25"
     inkscape:showpageshadow="2"
     inkscape:pageopacity="0.0"
     inkscape:pagecheckerboard="0"
     inkscape:deskcolor="#d1d1d1"
     inkscape:document-units="mm"
     inkscape:zoom="2.9255612"
     inkscape:cx="-69.046582"
     inkscape:cy="27.857903"
     inkscape:window-width="1920"
     inkscape:window-height="1009"
     inkscape:window-x="-8"
     inkscape:window-y="-8"
     inkscape:window-maximized="1"
     inkscape:current-layer="layer1" /><defs
     id="defs1"><linearGradient
       id="SVGID_1_"
       gradientUnits="userSpaceOnUse"
       x1="11.0001"
       y1="27.2334"
       x2="11.0001"
       y2="8.9000998"
       gradientTransform="matrix(0.2363213,0,0,-0.2363213,1.369216,8.2461659)">
	<stop
   offset="0"
   style="stop-color:#FFFFFF"
   id="stop1" />
	<stop
   offset="0.4583"
   style="stop-color:#FFFFFF"
   id="stop2" />
	<stop
   offset="1"
   style="stop-color:#FFFFFF"
   id="stop3" />
</linearGradient></defs><g
     inkscape:label="Camada 1"
     inkscape:groupmode="layer"
     id="layer1"><g
       id="g22"
       style="overflow:hidden;fill:currentColor"
       transform="matrix(0.03899265,0,0,0.03899342,-17.170101,-5.5497777)"><path
         d="m 542.132,142.326 c -56.218,0 -101.79,45.566 -101.79,101.776 0,56.218 45.57,101.784 101.79,101.784 56.204,0 101.774,-45.566 101.774,-101.784 0,-56.21 -45.57,-101.776 -101.774,-101.776 z"
         fill="#330D84"
         id="path17"
         style="fill:#3b3e43;fill-opacity:0.99607843" /><path
         d="m 542.132,167.708 c -42.196,0 -76.402,34.202 -76.402,76.396 0,42.196 34.208,76.402 76.402,76.402 42.188,0 76.394,-34.206 76.394,-76.402 0.002,-42.194 -34.206,-76.396 -76.394,-76.396 z"
         fill="#5932AE"
         id="path18"
         style="fill:#004de5;fill-opacity:1" /></g><path
       class="st1"
       d="M 5.4812067,3.2834184 V 2.290869 c 0,-0.1181607 -0.047265,-0.2599535 -0.1417928,-0.354482 C 5.2448857,1.8418584 5.1267248,1.7945942 4.984932,1.7945942 H 2.9289365 C 2.8107759,1.8182261 2.6926153,1.8654906 2.5980868,1.9600191 2.5035583,2.0545476 2.456294,2.1727083 2.456294,2.290869 v 2.8358556 c 0,0.070896 0.023632,0.1417928 0.047264,0.2126892 0.023632,0.070896 0.070896,0.1181607 0.1417928,0.1654249 l 0.732596,0.6144354 c 0,0 0.023632,0.023632 0.023632,0.023632 0,0 0.023632,0 0.023632,0 0,0 0.023632,-0.023632 0.023632,-0.023632 0,0 0,-0.023632 0,-0.023632 V 4.086911 c 0,-0.023632 0,-0.023632 0.023632,-0.047265 0,0 0.023632,-0.023632 0.047265,-0.023632 h 0.5435397 c 0.094529,0 0.189057,0.047264 0.2599534,0.1181606 0.070896,0.070896 0.1181606,0.1654249 0.1181606,0.2599534 v 1.701514 c 0,0 0,0.023632 0,0.023632 0,0 0.023632,0.023632 0.023632,0.023632 0,0 0.023632,0 0.023632,0 0,0 0.023632,0 0.023632,-0.023632 l 0.756228,-0.6144353 c 0.047267,-0.047265 0.094528,-0.094529 0.1417928,-0.1654249 0.023634,-0.070896 0.047267,-0.1417928 0.047267,-0.2126892 V 4.2523358 c 0,-0.1181606 -0.047267,-0.2599534 -0.1417928,-0.3544819 -0.094529,-0.094529 -0.2126892,-0.1417928 -0.354482,-0.1417928 0.1181601,0 0.2599529,-0.047265 0.3308493,-0.1417928 C 5.4339422,3.5433719 5.4812067,3.4015791 5.4812067,3.2834184 Z M 4.086911,3.5197398 H 3.543372 c -0.023632,0 -0.023632,0 -0.047265,-0.023632 0,0 -0.023632,-0.023632 -0.023632,-0.047265 v -1.087078 c 0,-0.023632 0.023632,-0.023632 0.023632,-0.047265 0,0 0.023632,-0.023632 0.047265,-0.023632 h 0.8507567 c 0.023632,0 0.023632,0 0.047264,0.023632 0,0 0.023632,0.023632 0.023632,0.047265 v 0.8034924 c 0,0.094529 -0.047264,0.189057 -0.1181605,0.2599534 -0.070896,0.070896 -0.165425,0.094529 -0.2599532,0.094529 z"
       id="path3"
       style="fill:url(#SVGID_1_);stroke-width:0.236321" /></g></svg>
