<?xml version="1.0" encoding="UTF-8" standalone="no"?>
<!-- Created with Inkscape (http://www.inkscape.org/) -->

<svg
   width="100"
   height="100"
   viewBox="0 0 26.458333 26.458333"
   version="1.1"
   id="svg1"
   inkscape:version="1.3 (0e150ed6c4, 2023-07-21)"
   sodipodi:docname="solana_logo.svg"
   xmlns:inkscape="http://www.inkscape.org/namespaces/inkscape"
   xmlns:sodipodi="http://sodipodi.sourceforge.net/DTD/sodipodi-0.dtd"
   xmlns:xlink="http://www.w3.org/1999/xlink"
   xmlns="http://www.w3.org/2000/svg"
   xmlns:svg="http://www.w3.org/2000/svg">
  <sodipodi:namedview
     id="namedview1"
     pagecolor="#ffffff"
     bordercolor="#000000"
     borderopacity="0.25"
     inkscape:showpageshadow="2"
     inkscape:pageopacity="0.0"
     inkscape:pagecheckerboard="0"
     inkscape:deskcolor="#d1d1d1"
     inkscape:document-units="mm"
     inkscape:zoom="4.1373683"
     inkscape:cx="76.618753"
     inkscape:cy="70.697114"
     inkscape:window-width="1920"
     inkscape:window-height="1017"
     inkscape:window-x="-8"
     inkscape:window-y="-8"
     inkscape:window-maximized="1"
     inkscape:current-layer="layer1" />
  <defs
     id="defs1">
    <linearGradient
       inkscape:collect="always"
       xlink:href="#linearGradient20"
       id="linearGradient21"
       x1="465.73001"
       y1="320.50601"
       x2="618.526"
       y2="167.70799"
       gradientUnits="userSpaceOnUse" />
    <linearGradient
       id="linearGradient20"
       inkscape:collect="always">
      <stop
         style="stop-color:#00ffa3;stop-opacity:1;"
         offset="0"
         id="stop20" />
      <stop
         style="stop-color:#dc1fff;stop-opacity:1;"
         offset="1"
         id="stop21" />
    </linearGradient>
  </defs>
  <g
     inkscape:label="Camada 1"
     inkscape:groupmode="layer"
     id="layer1">
    <g
       id="g22"
       style="overflow:hidden;fill:currentColor"
       transform="matrix(0.1299755,0,0,0.12997806,-57.233671,-18.499258)">
      <path
         d="m 542.132,142.326 c -56.218,0 -101.79,45.566 -101.79,101.776 0,56.218 45.57,101.784 101.79,101.784 56.204,0 101.774,-45.566 101.774,-101.784 0,-56.21 -45.57,-101.776 -101.774,-101.776 z"
         fill="#330D84"
         id="path17"
         style="fill:#0a4168;fill-opacity:1" />
      <path
         d="m 542.132,167.708 c -42.196,0 -76.402,34.202 -76.402,76.396 0,42.196 34.208,76.402 76.402,76.402 42.188,0 76.394,-34.206 76.394,-76.402 0.002,-42.194 -34.206,-76.396 -76.394,-76.396 z"
         fill="#5932AE"
         id="path18"
         style="fill:url(#linearGradient21);fill-opacity:1" />
      <g
         id="g2"
         transform="matrix(0.19354898,0,0,0.19354898,593.37609,-138.25928)"
         style="fill:#ffffff;fill-opacity:1">
        <path
           class="st2"
           d="m -76.18729,1925.3289 c -3.371506,-3.3717 -8.007329,-5.3385 -12.924113,-5.3385 H -534.99327 c -8.14781,0 -12.22171,9.8341 -6.46205,15.5941 l 88.08062,88.0854 c 3.37151,3.3716 8.00733,5.3385 12.92411,5.3385 H 5.4312745 c 8.1478095,0 12.2217095,-9.834 6.4620615,-15.5941 z"
           id="path6-8"
           style="fill:#ffffff;fill-opacity:1;stroke-width:1.40483" />
        <path
           class="st0"
           d="m -453.3747,2090.8228 c 3.37151,-3.3717 8.00733,-5.3385 12.92411,-5.3385 H 5.4312745 c 8.1478095,0 12.2217095,9.834 6.4620615,15.594 l -88.080626,88.0854 c -3.371506,3.3717 -8.007329,5.3385 -12.924113,5.3385 H -534.99327 c -8.14781,0 -12.22171,-9.8341 -6.46205,-15.5941 z"
           id="path2-5"
           style="fill:#ffffff;fill-opacity:1;stroke-width:1.40483" />
        <path
           class="st1"
           d="m -453.3747,1761.9424 c 3.51199,-3.3717 8.14781,-5.3385 12.92411,-5.3385 H 5.4312745 c 8.1478095,0 12.2217095,9.8341 6.4620615,15.5941 l -88.080626,88.0854 c -3.371506,3.3717 -8.007329,5.3386 -12.924113,5.3386 H -534.99327 c -8.14781,0 -12.22171,-9.8342 -6.46205,-15.5942 z"
           id="path4-4"
           style="clip-rule:evenodd;fill:#ffffff;fill-opacity:1;fill-rule:evenodd;stroke-width:1.40483" />
      </g>
    </g>
  </g>
</svg>
