<?xml version="1.0" encoding="UTF-8" standalone="no"?>
<svg
   width="120"
   height="60"
   version="1.1"
   id="svg3"
   sodipodi:docname="bitcoin - Copia.svg"
   inkscape:version="1.3 (0e150ed6c4, 2023-07-21)"
   xmlns:inkscape="http://www.inkscape.org/namespaces/inkscape"
   xmlns:sodipodi="http://sodipodi.sourceforge.net/DTD/sodipodi-0.dtd"
   xmlns:xlink="http://www.w3.org/1999/xlink"
   xmlns="http://www.w3.org/2000/svg"
   xmlns:svg="http://www.w3.org/2000/svg">
  <defs
     id="defs3">
    <linearGradient
       id="linearGradient1"
       inkscape:collect="always">
      <stop
         style="stop-color:#36c6b9;stop-opacity:1;"
         offset="0.12454873"
         id="stop13" />
      <stop
         style="stop-color:#5e9dca;stop-opacity:1;"
         offset="0.29602888"
         id="stop12" />
      <stop
         style="stop-color:#8b70dd;stop-opacity:1;"
         offset="0.8140794"
         id="stop11" />
      <stop
         style="stop-color:#c03bf3;stop-opacity:1;"
         offset="1"
         id="stop10" />
      <stop
         style="stop-color:#cb31f8;stop-opacity:1;"
         offset="1"
         id="stop8" />
    </linearGradient>
    <linearGradient
       id="SVGID_3_"
       gradientUnits="userSpaceOnUse"
       x1="312.5484"
       y1="376.68799"
       x2="92.882202"
       y2="-44.061001"
       gradientTransform="matrix(1.4047947,0,0,-1.404871,-544.12444,2197.7335)">&#10;	<stop
   offset="0"
   style="stop-color:#00FFA3"
   id="stop5" />
&#10;	<stop
   offset="1"
   style="stop-color:#DC1FFF"
   id="stop6" />
&#10;</linearGradient>
    <linearGradient
       id="SVGID_1_"
       gradientUnits="userSpaceOnUse"
       x1="360.87909"
       y1="351.45529"
       x2="141.213"
       y2="-69.293602"
       gradientTransform="matrix(1.4047947,0,0,-1.404871,-544.12444,2197.7335)">&#10;	<stop
   offset="0"
   style="stop-color:#00FFA3"
   id="stop1" />
&#10;	<stop
   offset="1"
   style="stop-color:#DC1FFF"
   id="stop2" />
&#10;</linearGradient>
    <linearGradient
       id="SVGID_2_"
       gradientUnits="userSpaceOnUse"
       x1="264.8291"
       y1="401.60141"
       x2="45.162998"
       y2="-19.147499"
       gradientTransform="matrix(1.4047947,0,0,-1.404871,-544.12444,2197.7335)">&#10;	<stop
   offset="0"
   style="stop-color:#00FFA3"
   id="stop3" />
&#10;	<stop
   offset="1"
   style="stop-color:#DC1FFF"
   id="stop4" />
&#10;</linearGradient>
    <linearGradient
       inkscape:collect="always"
       xlink:href="#linearGradient1"
       id="linearGradient8"
       x1="40.732758"
       y1="231.29285"
       x2="72.482758"
       y2="215.41785"
       gradientUnits="userSpaceOnUse" />
  </defs>
  <sodipodi:namedview
     id="namedview3"
     pagecolor="#ffffff"
     bordercolor="#000000"
     borderopacity="0.25"
     inkscape:showpageshadow="2"
     inkscape:pageopacity="0.0"
     inkscape:pagecheckerboard="0"
     inkscape:deskcolor="#d1d1d1"
     showguides="true"
     inkscape:zoom="2.7791666"
     inkscape:cx="30.944528"
     inkscape:cy="24.647677"
     inkscape:window-width="1920"
     inkscape:window-height="1017"
     inkscape:window-x="-8"
     inkscape:window-y="-8"
     inkscape:window-maximized="1"
     inkscape:current-layer="svg3" />
  <path
     style="display:inline;opacity:1;fill:url(#linearGradient8);fill-opacity:1;stroke:none;stroke-width:0.994365;stroke-linejoin:round;stroke-miterlimit:4;stroke-dasharray:none"
     d="m 46.934047,215.41785 c -3.435449,0 -6.201292,1.38292 -6.201292,3.10064 v 9.67371 c 0,1.71773 2.765843,3.10065 6.201292,3.10065 h 19.347417 c 3.435444,0 6.201291,-1.38292 6.201291,-3.10065 v -9.67371 c 0,-1.71772 -2.765847,-3.10064 -6.201291,-3.10064 z"
     id="path38"
     sodipodi:nodetypes="sssssssss"
     transform="matrix(3.7795276,0,0,3.7795276,-153.95058,-814.17771)" />
  <path
     style="display:inline;opacity:1;fill:#f9f9f9;fill-opacity:1;stroke:none;stroke-width:3.46718;stroke-linejoin:round;stroke-miterlimit:4;stroke-dasharray:none"
     d="m 27.18018,2.1926348 c -11.9429,0 -21.5579994,4.8365184 -21.5579994,10.8439402 v 33.832093 c 0,6.007456 9.6150994,10.843976 21.5579994,10.843976 h 67.258822 c 11.942878,0 21.557988,-4.83652 21.557988,-10.843976 V 13.036575 c 0,-6.0074218 -9.61511,-10.8439402 -21.557988,-10.8439402 z"
     id="rect443-0"
     inkscape:connector-curvature="0"
     sodipodi:nodetypes="sssssssss" />
  <path
     id="rect443"
     style="display:inline;opacity:0.3;fill:#ffffff;fill-opacity:1;stroke:none;stroke-width:0.994365;stroke-linejoin:round;stroke-miterlimit:4;stroke-dasharray:none"
     d="m 70.669948,216.32425 -28.124382,14.0622 c 1.120859,0.56032 2.670849,0.9064 4.388363,0.9064 h 19.347656 c 3.435441,0 6.201172,-1.38286 6.201172,-3.10059 v -9.67382 c 0,-0.85886 -0.691401,-1.63374 -1.812293,-2.19419 -1.36e-4,-6e-5 -3.8e-4,7e-5 -5.16e-4,0 z"
     transform="matrix(3.7795276,0,0,3.7795276,-153.95058,-814.17771)" />
  <g
     inkscape:groupmode="layer"
     id="layer1"
     inkscape:label="Solana"
     transform="matrix(0.04553114,0,0,0.04553114,34.066265,-58.671996)">
    <g
       id="g1"
       transform="translate(-58.063097,-28.050835)">
      <path
         d="m 249.77627,1996.4308 h 88.32911 c 12.41961,0 22.48378,10.1713 22.48378,22.5909 0,12.5267 -10.06417,22.5908 -22.48378,22.5908 H 231.57511 c -1.71304,0 -3.31903,0.6424 -4.49675,1.7131 l -32.11968,27.73 c -4.92502,4.2826 -1.92718,12.3125 4.49676,12.3125 H 332.7521 c 0,0 0.10707,0 0.10707,-0.1071 0,-0.107 0.10707,-0.107 0.10707,-0.107 1.71304,0.107 3.31903,0.2141 5.03208,0.2141 35.33165,0 64.02523,-28.8006 64.02523,-64.3464 0,-33.7257 -25.80281,-61.4557 -58.77902,-64.1323 0,0 -0.10706,0 -0.10706,-0.1071 0,-0.107 0,-0.107 -0.10707,-0.107 h -95.07425 c -12.41961,0 -22.48377,-10.1713 -22.48377,-22.5909 0,-12.5267 10.06416,-22.5908 22.48377,-22.5908 h 106.31614 c 1.71305,0 3.4261,-0.6424 4.71089,-1.8201 l 29.8713,-27.73 c 4.71088,-4.3897 1.60598,-12.2055 -4.71089,-12.2055 H 249.77627 c 0,0 0,0 0,0 0,0 0,0 0,0 -0.53533,0 -1.17773,0 -1.71305,0 -35.33165,0 -64.02523,28.8006 -64.02523,64.3464 0,35.5458 28.69358,64.3464 64.02523,64.3464 0.53532,0 1.07065,0 1.71305,0 z"
         id="path1"
         style="stroke-width:1.07066" />
      <path
         d="m 763.90526,1867.6309 c -3.85436,0 -6.95926,3.1049 -6.95926,7.0664 v 201.7115 c 0,3.8544 3.1049,7.0664 6.95926,7.0664 h 161.66906 c 1.92718,0 3.74729,-0.8565 5.13915,-2.2484 l 20.23539,-21.7343 c 4.17556,-4.4968 1.07066,-11.8843 -5.13915,-11.8843 H 804.69726 c -3.85436,0 -6.95927,-3.1049 -6.95927,-7.0663 v -165.9517 c 0,-3.8544 -3.1049,-7.0663 -6.95926,-7.0663 h -26.87347 z"
         id="path2"
         style="stroke-width:1.07066" />
      <path
         class="st1"
         d="m 505.02065,1867.6309 c 0,0 0,0 0,0 0,0.1071 0,0.1071 0,0 -20.66366,0.9636 -37.25883,17.5588 -38.22242,38.2224 0,0 0,0 0,0 0,0 0,0 0,0 0,0 0,0 0,0 v 135.6522 c 0,0 0,0 0,0 0,0 0,0 0,0 0,0.5353 0,1.1777 0,1.713 0,21.5202 16.91637,39.079 38.22242,39.9355 0,0 0,0 0,0 v 0 0 c 0,0 0,0 0,0 h 146.67987 c 0,0 0,0 0,0 v 0 0 0 c 21.19899,-0.9636 38.22242,-18.5224 38.22242,-39.9355 0,-0.5353 0,-1.1777 0,-1.713 0,0 0,0 0,0 0,0 0,0 0,0 v -135.5451 c 0,0 0,0 0,0 0,0 0,0 0,0 -0.85653,-20.6636 -17.4517,-37.3659 -38.11536,-38.2224 0,0 0,0 0,0 0,0 0,0 0,0 H 505.02065 Z m 27.40879,38.3295 v 0 0 c -0.10706,0 -0.10706,0 0,0 -12.95493,0.5353 -23.3403,11.0278 -23.87563,24.0898 0,0 0,0 0,0 0,0 0,0 0,0 v 85.3313 c 0,0 0,0 0,0 0,0 0,0 0,0 0,0.3212 0,0.7494 0,1.0706 0,13.4903 10.5995,24.6251 23.87563,25.1604 0,0 0,0 0,0 v 0 0 0 h 91.96935 v 0 0 0 c 0,0 0,0 0,0 13.27614,-0.5353 23.87563,-11.6701 23.87563,-25.1604 0,-0.3212 0,-0.7494 0,-1.0706 v 0 0 0 c 0,0 0,0 0,0 v -85.3313 c 0,0 0,0 0,0 0,0 0,0 0,0 -0.53533,-13.062 -10.92069,-23.4474 -23.87563,-24.0898 0,0 0,0 0,0 v 0 0 0 z"
         id="path3"
         style="clip-rule:evenodd;fill-rule:evenodd;stroke-width:1.07066" />
      <path
         class="st1"
         d="m 1185.9579,2076.4088 c 0,3.8544 3.1049,7.0664 6.9592,7.0664 h 27.4088 c 3.8544,0 6.9593,-3.1049 6.9593,-7.0664 v -166.9152 c 0,0 0,0 0,0 v 0 0 c 0,0 0,0 0,0 0,-0.5353 0,-1.1777 0,-1.7131 0,-21.5202 -16.8093,-39.0789 -37.7942,-39.9354 0,0 0,0 0,0 0,0 0,0 0,0 h -140.7912 c 0,0 0,0 0,0 0,0 0,0 0,0 -0.5354,0 -1.1778,0 -1.7131,0 -21.8414,0 -39.5072,17.8799 -39.5072,40.0425 0,0.5353 0,1.1777 0,1.713 0,0 0,0 0,0 0,0 0,0 0,0 v 166.9153 c 0,3.8544 3.1049,7.0663 6.9593,7.0663 h 27.4088 c 3.8543,0 6.9592,-3.1049 6.9592,-7.0663 v -69.4856 c 0,-3.8543 3.1049,-7.0663 6.9593,-7.0663 h 123.5537 c 3.8544,0 6.9593,3.1049 6.9593,7.0663 v 69.3785 z m -137.3652,-114.8813 v -34.6893 c 0,-13.4903 10.8136,-24.4109 24.0897,-24.4109 h 89.2928 c 13.2761,0 24.0897,10.9206 24.0897,24.4109 v 34.6893 c 0,3.8543 -3.1049,7.0663 -6.9592,7.0663 H 1055.552 c -3.8544,0 -6.9593,-3.1049 -6.9593,-7.0663 z"
         id="path4"
         style="clip-rule:evenodd;fill-rule:evenodd;stroke-width:1.07066" />
      <path
         class="st1"
         d="m 1764.6474,2083.4752 c -3.8543,0 -6.9592,-3.1049 -6.9592,-7.0664 v -69.4855 c 0,-3.8544 -3.1049,-7.0664 -6.9593,-7.0664 h -124.9456 c -3.8543,0 -6.9592,3.1049 -6.9592,7.0664 v 69.4855 c 0,3.8544 -3.1049,7.0664 -6.9593,7.0664 h -27.6229 c -3.8544,0 -6.9593,-3.1049 -6.9593,-7.0664 v -166.9152 0 0 c 0,0 0,0 0,0 0,0 0,0 0,0 0,-0.5353 0,-1.1777 0,-1.7131 0,-22.0555 17.88,-40.0425 39.9355,-40.0425 0.5353,0 1.1777,0 1.713,0 0,0 0,0 0,0 0,0 0,0 0,0 h 142.2902 c 0,0 0,0 0,0 0,0 0,0 0,0 21.199,0.9636 38.2224,18.5223 38.2224,39.9355 0,0.5353 0,1.1777 0,1.713 0,0 0,0 0,0 0,0 0,0 0,0 0,0 0,0 0,0 v 166.9153 c 0,3.8543 -3.1049,7.0663 -6.9592,7.0663 h -27.8371 z m -145.8233,-156.637 v 34.6893 c 0,3.8543 3.1049,7.0663 6.9592,7.0663 h 124.9456 c 3.8544,0 6.9593,-3.1049 6.9593,-7.0663 v -34.6893 c 0,-13.4903 -10.9207,-24.4109 -24.3039,-24.4109 h -90.2563 c -13.4903,0 -24.3039,10.9206 -24.3039,24.4109 z"
         id="path5"
         style="clip-rule:evenodd;fill-rule:evenodd;stroke-width:1.07066" />
      <path
         d="m 1330.4964,1867.6309 c 2.0343,0 3.9615,0.8566 5.2462,2.4625 l 122.9113,146.5728 c 4.1756,4.9251 12.2055,1.9272 12.2055,-4.6038 v -137.3651 c 0,-3.8544 3.1049,-7.0664 6.9593,-7.0664 h 27.4088 c 3.8543,0 6.9592,3.1049 6.9592,7.0664 v 201.7115 c 0,3.8544 -3.1049,7.0664 -6.9592,7.0664 h -34.0469 c -0.107,0 -0.2141,-0.1071 -0.2141,-0.2142 0,-0.107 0,-0.107 -0.1071,-0.2141 l -125.0526,-145.5021 c -4.1756,-4.9251 -12.2055,-1.8201 -12.2055,4.6038 v 134.3673 c 0,3.8544 -3.1049,7.0663 -6.9592,7.0663 h -27.623 c -3.8543,0 -6.9592,-3.1049 -6.9592,-7.0663 v -201.8186 c 0,-3.8544 3.1049,-7.0664 6.9592,-7.0664 z"
         id="path6"
         style="stroke-width:1.07066" />
      <path
         class="st2"
         d="m -76.18729,1925.3289 c -3.371506,-3.3717 -8.007329,-5.3385 -12.924113,-5.3385 H -534.99327 c -8.14781,0 -12.22171,9.8341 -6.46205,15.5941 l 88.08062,88.0854 c 3.37151,3.3716 8.00733,5.3385 12.92411,5.3385 H 5.4312745 c 8.1478095,0 12.2217095,-9.834 6.4620615,-15.5941 z"
         id="path6-8"
         style="fill:url(#SVGID_3_);stroke-width:1.40483" />
      <path
         class="st0"
         d="m -453.3747,2090.8228 c 3.37151,-3.3717 8.00733,-5.3385 12.92411,-5.3385 H 5.4312745 c 8.1478095,0 12.2217095,9.834 6.4620615,15.594 l -88.080626,88.0854 c -3.371506,3.3717 -8.007329,5.3385 -12.924113,5.3385 H -534.99327 c -8.14781,0 -12.22171,-9.8341 -6.46205,-15.5941 z"
         id="path2-5"
         style="fill:url(#SVGID_1_);stroke-width:1.40483" />
      <path
         class="st1"
         d="m -453.3747,1761.9424 c 3.51199,-3.3717 8.14781,-5.3385 12.92411,-5.3385 H 5.4312745 c 8.1478095,0 12.2217095,9.8341 6.4620615,15.5941 l -88.080626,88.0854 c -3.371506,3.3717 -8.007329,5.3386 -12.924113,5.3386 H -534.99327 c -8.14781,0 -12.22171,-9.8342 -6.46205,-15.5942 z"
         id="path4-4"
         style="clip-rule:evenodd;fill:url(#SVGID_2_);fill-rule:evenodd;stroke-width:1.40483" />
    </g>
  </g>
</svg>
