<?xml version="1.0" encoding="UTF-8" standalone="no"?>
<svg
   version="1.1"
   id="Layer_1"
   x="0px"
   y="0px"
   width="100%"
   viewBox="0 0 743 615"
   enable-background="new 0 0 743 615"
   xml:space="preserve"
   sodipodi:docname="Screenshot_2.svg"
   inkscape:version="1.4 (86a8ad7, 2024-10-11)"
   xmlns:inkscape="http://www.inkscape.org/namespaces/inkscape"
   xmlns:sodipodi="http://sodipodi.sourceforge.net/DTD/sodipodi-0.dtd"
   xmlns:xlink="http://www.w3.org/1999/xlink"
   xmlns="http://www.w3.org/2000/svg"
   xmlns:svg="http://www.w3.org/2000/svg"><defs
   id="defs12"><linearGradient
     id="linearGradient22"
     inkscape:collect="always"><stop
       style="stop-color:#0d6e6e;stop-opacity:1;"
       offset="0"
       id="stop22" /><stop
       style="stop-color:#afffff;stop-opacity:1;"
       offset="1"
       id="stop23" /></linearGradient><linearGradient
     id="linearGradient20"
     inkscape:collect="always"><stop
       style="stop-color:#0d6e6e;stop-opacity:1;"
       offset="0"
       id="stop20" /><stop
       style="stop-color:#afffff;stop-opacity:1;"
       offset="1"
       id="stop21" /></linearGradient><linearGradient
     id="linearGradient18"
     inkscape:collect="always"><stop
       style="stop-color:#0d6e6e;stop-opacity:1;"
       offset="0"
       id="stop18" /><stop
       style="stop-color:#afffff;stop-opacity:1;"
       offset="1"
       id="stop19" /></linearGradient><linearGradient
     id="linearGradient14"
     inkscape:collect="always"><stop
       style="stop-color:#afffff;stop-opacity:1;"
       offset="0"
       id="stop14" /><stop
       style="stop-color:#0d6e6e;stop-opacity:1;"
       offset="1"
       id="stop15" /></linearGradient><linearGradient
     id="linearGradient12"
     inkscape:collect="always"><stop
       style="stop-color:#afffff;stop-opacity:1;"
       offset="0"
       id="stop12" /><stop
       style="stop-color:#0d6e6e;stop-opacity:1;"
       offset="1"
       id="stop13" /></linearGradient><linearGradient
     inkscape:collect="always"
     xlink:href="#linearGradient12"
     id="linearGradient13"
     x1="108.97379"
     y1="313.49783"
     x2="271.32904"
     y2="199.81549"
     gradientUnits="userSpaceOnUse"
     gradientTransform="matrix(0.96202058,0,0,0.96202058,3.4580954,4.0385711)" /><linearGradient
     inkscape:collect="always"
     xlink:href="#linearGradient14"
     id="linearGradient15"
     x1="204.87704"
     y1="474.77448"
     x2="198.75578"
     y2="299.4823"
     gradientUnits="userSpaceOnUse"
     gradientTransform="matrix(0.96202058,0,0,0.96202058,3.4580954,4.0385711)" /><linearGradient
     inkscape:collect="always"
     xlink:href="#linearGradient14"
     id="linearGradient16"
     gradientUnits="userSpaceOnUse"
     x1="204.87704"
     y1="474.77448"
     x2="198.75578"
     y2="299.4823"
     gradientTransform="matrix(-0.96202058,0,0,-0.96202058,748.52027,607.29721)" /><linearGradient
     inkscape:collect="always"
     xlink:href="#linearGradient12"
     id="linearGradient17"
     gradientUnits="userSpaceOnUse"
     x1="108.97379"
     y1="313.49783"
     x2="271.32904"
     y2="199.81549"
     gradientTransform="matrix(-0.96202058,0,0,-0.96202058,748.52027,607.29721)" /><linearGradient
     inkscape:collect="always"
     xlink:href="#linearGradient18"
     id="linearGradient19"
     x1="509.50925"
     y1="316.36815"
     x2="1104.2795"
     y2="316.36815"
     gradientUnits="userSpaceOnUse"
     gradientTransform="matrix(0.69015332,0,0,0.69015332,364.78301,76.306637)" /><linearGradient
     inkscape:collect="always"
     xlink:href="#linearGradient20"
     id="linearGradient21"
     x1="807.37634"
     y1="-19.63002"
     x2="807.37634"
     y2="627.7384"
     gradientUnits="userSpaceOnUse"
     gradientTransform="matrix(0.69015332,0,0,0.69015332,364.78301,76.306637)" /><linearGradient
     inkscape:collect="always"
     xlink:href="#linearGradient22"
     id="linearGradient23"
     x1="483.5377"
     y1="328.92163"
     x2="1131.1169"
     y2="328.92163"
     gradientUnits="userSpaceOnUse"
     gradientTransform="matrix(0.69015332,0,0,0.69015332,364.78301,76.306637)" /></defs><sodipodi:namedview
   id="namedview12"
   pagecolor="#505050"
   bordercolor="#ffffff"
   borderopacity="1"
   inkscape:showpageshadow="0"
   inkscape:pageopacity="0"
   inkscape:pagecheckerboard="1"
   inkscape:deskcolor="#505050"
   showguides="true"
   inkscape:zoom="0.125"
   inkscape:cx="-1356"
   inkscape:cy="-716"
   inkscape:window-width="1920"
   inkscape:window-height="1009"
   inkscape:window-x="-8"
   inkscape:window-y="-8"
   inkscape:window-maximized="1"
   inkscape:current-layer="Layer_1" />


<path
   fill="#7fd758"
   opacity="1"
   stroke="none"
   d="m 165.00195,306.20177 c -31.50583,31.69604 -50.19535,56.98116 -50.19535,56.98116 46.81076,47.22779 94.04342,94.03742 141.10234,141.01918 0.66294,0.66187 1.4016,1.24798 2.40395,2.13367 10.67788,-10.46911 17.78841,-22.83182 21.10792,-37.13219 6.77105,-29.16966 0.18208,-55.18148 -20.77508,-76.66515 -28.19285,-28.90122 -56.99495,-57.20813 -85.94667,-86.22297 z"
   id="path3-0"
   sodipodi:nodetypes="csscsscc"
   style="fill:url(#linearGradient15);stroke-width:0.962021" />


<path
   fill="#fe904d"
   opacity="1"
   stroke="none"
   d="m 147.02917,395.55947 c -10.29992,-10.26068 -19.90191,-19.86055 -29.85529,-29.78868 -34.035757,-34.09008 -35.139705,-82.88996 -1.38171,-117.28535 46.36377,-47.23918 93.55812,-93.66317 140.40307,-140.42994 0.5424,-0.54149 1.17205,-0.99564 2.03367,-1.71972 11.95785,12.10071 19.51268,26.32931 22.23486,42.88446 4.74276,28.84352 -4.00738,53.40217 -24.52269,73.95045 -27.6297,27.6741 -55.28321,55.32442 -83.37208,83.4166 -10.34564,10.17024 -18.54329,21.16577 -24.40614,33.77154 -5.5664,11.96842 -8.76647,24.4903 -5.97111,37.72105 1.2024,5.69106 2.98985,11.92483 4.83742,17.47959 z"
   id="path2"
   sodipodi:nodetypes="ccsscsscssc"
   style="fill:url(#linearGradient13);stroke-width:0.962021" /><g
   id="g24"
   transform="translate(330.92597,1.33578)"><path
     fill="#7fd758"
     opacity="1"
     stroke="none"
     d="m 586.97643,305.13401 c 31.50583,-31.69604 50.19535,-56.98116 50.19535,-56.98116 -46.81076,-47.22779 -94.04342,-94.03742 -141.10234,-141.01918 -0.66294,-0.66187 -1.4016,-1.24798 -2.40396,-2.13367 -10.67788,10.46911 -17.7884,22.83182 -21.10791,37.13219 -6.77105,29.16966 -0.18208,55.18148 20.77508,76.66515 28.19285,28.90122 56.99495,57.20813 85.94667,86.22297 z"
     id="path3-0-5"
     sodipodi:nodetypes="csscsscc"
     style="fill:url(#linearGradient16);stroke-width:0.962021" /><path
     fill="#fe904d"
     opacity="1"
     stroke="none"
     d="m 604.94921,215.77631 c 10.29992,10.26068 19.90191,19.86055 29.85529,29.78868 34.03576,34.09008 35.1397,82.88996 1.38171,117.28535 -46.36377,47.23918 -93.55812,93.66317 -140.40307,140.42994 -0.5424,0.54149 -1.17206,0.99564 -2.03367,1.71972 -11.95785,-12.10071 -19.51268,-26.32931 -22.23486,-42.88446 -4.74276,-28.84352 4.00738,-53.40217 24.52269,-73.95045 27.6297,-27.6741 55.28321,-55.32442 83.37208,-83.4166 10.34564,-10.17024 18.54329,-21.16577 24.40613,-33.77154 5.56641,-11.96842 8.76647,-24.4903 5.97112,-37.72105 -1.2024,-5.69106 -2.98985,-11.92483 -4.83742,-17.47959 z"
     id="path2-5"
     sodipodi:nodetypes="ccsscsscssc"
     style="fill:url(#linearGradient17);stroke-width:0.962021" /></g>





<g
   id="g23"
   transform="translate(-386.0803,11.531175)"><path
     fill="#d8d9d8"
     opacity="1"
     stroke="none"
     d="m 1145.4271,111.82139 c -0.753,0.9624 -1.4148,2.01602 -2.2722,2.87411 -33.7964,33.82078 -67.6112,67.62315 -101.4186,101.4329 -0.8091,0.80911 -1.562,1.67434 -2.655,2.83046 -4.9457,4.92184 -9.6013,9.50309 -14.2045,14.13639 -8.8792,8.93735 -17.7288,17.90413 -26.59078,26.85868 -0.53975,0.41708 -1.1331,0.78051 -1.61152,1.25886 -37.44098,37.43475 -74.87293,74.87852 -112.60403,112.61838 -1.74427,1.7623 -3.18553,3.23228 -4.63662,4.69252 -11.2032,11.27397 -22.40833,22.54602 -33.61284,33.81866 -1.02207,0.91309 -2.09121,1.77907 -3.0593,2.74618 -20.39598,20.3753 -40.85025,40.69296 -61.14228,61.17131 -12.99466,13.11397 -28.55576,19.64802 -46.97076,18.39231 -14.15245,-0.96506 -26.5087,-6.49446 -36.15051,-16.92915 6.18241,-0.46648 11.93936,-0.71922 17.92435,-0.87452 19.15778,10.14496 41.84578,5.50479 56.50271,-9.20444 116.79921,-117.21643 233.89908,-234.13328 350.89988,-351.14884 1.1352,-1.13535 2.1775,-2.36366 3.5493,-3.54095 6.2084,-0.37253 12.1305,-0.7527 18.0527,-1.13286 z"
     id="path4"
     style="fill:url(#linearGradient23);stroke-width:0.690153" /><path
     fill="#fddd5a"
     opacity="1"
     stroke="none"
     d="m 716.19447,476.75108 c -5.75695,0.2527 -11.5139,0.50544 -17.58975,0.74564 0.90585,-1.35643 2.07894,-2.75195 3.36289,-4.03667 33.17997,-33.20057 66.37195,-66.38918 99.55838,-99.5833 0.88981,-0.89002 1.74126,-1.81838 2.95064,-3.03451 13.88682,-13.90514 27.43356,-27.50459 40.9803,-41.10405 0.438,-0.36499 0.90794,-0.69799 1.30939,-1.09948 37.48756,-37.48732 74.96985,-74.9799 112.76794,-112.7918 12.98433,-13.05251 25.65324,-25.78537 38.32204,-38.51822 1.57934,-1.4897 3.1967,-2.94117 4.7321,-4.47481 20.475,-20.45183 40.8757,-40.97849 61.4217,-61.35861 22.4497,-22.268383 58.6951,-22.26943 81.378,0.0882 -5.8832,0.61806 -11.8053,0.99823 -18.1968,1.20097 -6.9419,-3.72218 -13.8942,-5.65969 -21.2445,-5.75862 -13.8403,-0.18629 -25.3669,5.04215 -35.1569,14.84066 -116.57421,116.67547 -233.21178,233.28766 -349.82779,349.92141 -1.62168,1.62192 -3.17983,3.30737 -4.76764,4.96317 z"
     id="path5"
     style="fill:url(#linearGradient21);stroke-width:0.690153" /><path
     fill="#affffe"
     opacity="1"
     stroke="none"
     d="m 716.42251,476.84848 c 1.35977,-1.7532 2.91792,-3.43865 4.5396,-5.06057 116.61601,-116.63375 233.25358,-233.24594 349.82779,-349.92141 9.79,-9.79851 21.3166,-15.02695 35.1569,-14.84066 7.3503,0.0989 14.3026,2.03644 20.9584,5.751 -0.9026,1.3547 -1.9449,2.58301 -3.0801,3.71836 -117.0008,117.01556 -234.10067,233.93241 -350.89988,351.14884 -14.65693,14.70923 -37.34493,19.3494 -56.50271,9.20444 z"
     id="path12"
     style="fill:url(#linearGradient19);stroke-width:0.690153" /></g>
</svg>
