<?xml version="1.0" encoding="UTF-8" standalone="no"?>
<!-- Created with Inkscape (http://www.inkscape.org/) -->

<svg
   width="30"
   height="30"
   viewBox="0 0 7.9374999 7.9374999"
   version="1.1"
   id="svg1"
   inkscape:version="1.3 (0e150ed6c4, 2023-07-21)"
   sodipodi:docname="ethereum_logo.svg"
   xmlns:inkscape="http://www.inkscape.org/namespaces/inkscape"
   xmlns:sodipodi="http://sodipodi.sourceforge.net/DTD/sodipodi-0.dtd"
   xmlns="http://www.w3.org/2000/svg"
   xmlns:svg="http://www.w3.org/2000/svg">
  <sodipodi:namedview
     id="namedview1"
     pagecolor="#ffffff"
     bordercolor="#000000"
     borderopacity="0.25"
     inkscape:showpageshadow="2"
     inkscape:pageopacity="0.0"
     inkscape:pagecheckerboard="0"
     inkscape:deskcolor="#d1d1d1"
     inkscape:document-units="mm"
     inkscape:zoom="4.1373683"
     inkscape:cx="76.618753"
     inkscape:cy="70.455415"
     inkscape:window-width="1920"
     inkscape:window-height="1017"
     inkscape:window-x="-8"
     inkscape:window-y="-8"
     inkscape:window-maximized="1"
     inkscape:current-layer="layer1" />
  <defs
     id="defs1" />
  <g
     inkscape:label="Camada 1"
     inkscape:groupmode="layer"
     id="layer1">
    <g
       id="g24"
       style="overflow:hidden;fill:currentColor"
       transform="matrix(0.03899265,0,0,0.03899342,-29.790385,4.0553151)">
      <path
         d="M 865.79,-104 C 809.572,-104 764,-58.434 764,-2.224 764,53.994 809.57,99.56 865.79,99.56 921.994,99.56 967.564,53.994 967.564,-2.224 967.564,-58.434 921.994,-104 865.79,-104 Z"
         fill="#330D84"
         id="path17-9-0"
         style="overflow:hidden;fill:#343474;fill-opacity:1" />
      <path
         d="m 865.79,-78.618 c -42.196,0 -76.402,34.202 -76.402,76.396 0,42.196 34.208,76.402 76.402,76.402 42.188,0 76.394,-34.206 76.394,-76.402 0.002,-42.194 -34.206,-76.396 -76.394,-76.396 z"
         fill="#5932AE"
         id="path18-5-0"
         style="overflow:hidden;fill:#6f72c8;fill-opacity:1" />
      <g
         id="_1421394342400"
         transform="matrix(0.08612764,0,0,0.08278645,832.00803,-55.093878)">
        <g
           id="g6">
          <polygon
             fill="#343434"
             fill-rule="nonzero"
             points="784.13,650.54 392.07,0 383.5,29.11 383.5,873.74 392.07,882.29 "
             id="polygon1"
             style="fill:#f2f2f2" />
          <polygon
             fill="#8c8c8c"
             fill-rule="nonzero"
             points="392.07,472.33 392.07,0 0,650.54 392.07,882.29 "
             id="polygon2"
             style="fill:#ffffff" />
          <polygon
             fill="#3c3c3b"
             fill-rule="nonzero"
             points="784.37,724.89 392.07,956.52 387.24,962.41 387.24,1263.28 392.07,1277.38 "
             id="polygon3"
             style="fill:#f2f2f2" />
          <polygon
             fill="#8c8c8c"
             fill-rule="nonzero"
             points="392.07,1277.38 392.07,956.52 0,724.89 "
             id="polygon4"
             style="fill:#ffffff" />
          <polygon
             fill="#141414"
             fill-rule="nonzero"
             points="392.07,882.29 784.13,650.54 392.07,472.33 "
             id="polygon5"
             style="fill:#e6e6e6" />
          <polygon
             fill="#393939"
             fill-rule="nonzero"
             points="0,650.54 392.07,882.29 392.07,472.33 "
             id="polygon6"
             style="fill:#f2f2f2" />
        </g>
      </g>
    </g>
  </g>
</svg>
