<?xml version="1.0" encoding="UTF-8" standalone="no"?>
<!-- Created with Inkscape (http://www.inkscape.org/) -->

<svg
   width="30"
   height="30"
   viewBox="0 0 7.9374999 7.9374999"
   version="1.1"
   id="svg1"
   inkscape:version="1.4 (86a8ad7, 2024-10-11)"
   sodipodi:docname="emoji.svg"
   xml:space="preserve"
   inkscape:export-filename="emojis\magiceden.png"
   inkscape:export-xdpi="409.60001"
   inkscape:export-ydpi="409.60001"
   xmlns:inkscape="http://www.inkscape.org/namespaces/inkscape"
   xmlns:sodipodi="http://sodipodi.sourceforge.net/DTD/sodipodi-0.dtd"
   xmlns="http://www.w3.org/2000/svg"
   xmlns:svg="http://www.w3.org/2000/svg"><sodipodi:namedview
     id="namedview1"
     pagecolor="#ffffff"
     bordercolor="#000000"
     borderopacity="0.25"
     inkscape:showpageshadow="2"
     inkscape:pageopacity="0.0"
     inkscape:pagecheckerboard="0"
     inkscape:deskcolor="#d1d1d1"
     inkscape:document-units="mm"
     inkscape:zoom="5.6568542"
     inkscape:cx="-23.157747"
     inkscape:cy="27.84233"
     inkscape:window-width="1920"
     inkscape:window-height="1009"
     inkscape:window-x="-8"
     inkscape:window-y="-8"
     inkscape:window-maximized="1"
     inkscape:current-layer="layer5"
     showguides="true"><sodipodi:guide
       position="1.3563928,1.8337321"
       orientation="1,0"
       id="guide11"
       inkscape:locked="false" /><sodipodi:guide
       position="4.9774739,6.6145832"
       orientation="0,-1"
       id="guide12"
       inkscape:locked="false" /><inkscape:page
       x="0"
       y="0"
       width="7.9375"
       height="7.9375"
       id="page2"
       margin="0"
       bleed="0" /></sodipodi:namedview><defs
     id="defs1" /><g
     inkscape:groupmode="layer"
     id="layer5"
     inkscape:label="Bitcoin"><rect
       style="overflow:hidden;fill:#ff9500;fill-opacity:1;stroke:none;stroke-width:0.264583"
       id="rect1-1-7"
       width="7.9375"
       height="7.9375"
       x="-3.5527137e-15"
       y="-1.7763568e-15"
       ry="3.96875"
       inkscape:export-filename="emojis\bitcoin.png"
       inkscape:export-xdpi="409.60001"
       inkscape:export-ydpi="409.60001" /><g
       id="g23"
       style="overflow:hidden;fill:currentColor"
       transform="matrix(0.03899265,0,0,0.03899342,-2.8048863,-5.0546729)"><path
         d="m 218.8393,238.39175 c -3.97055,-4.60349 -9.34177,-7.63928 -16.06972,-9.09563 1.86659,-0.82048 3.15885,-1.41533 3.87384,-1.78455 0.73844,-0.35163 2.01897,-1.26589 3.89143,-2.71638 5.4943,-4.1405 8.23705,-10.45529 8.23705,-18.94727 0,-7.05322 -2.43214,-13.36507 -7.30815,-18.95021 -2.69,-3.01234 -6.70744,-5.38881 -12.04057,-7.15284 a 44.206398,44.206398 0 0 0 -5.07527,-1.3157 v -13.81048 h -19.05862 v 12.48012 H 162.522 v -12.48012 h -19.05862 v 12.48012 h -20.86662 v 20.51205 h 15.5452 v 67.58135 h -15.5452 v 20.51205 h 20.86662 v 12.49477 H 162.522 v -12.49477 h 12.76729 v 12.49477 h 19.05862 v -12.96069 c 10.35859,-1.11644 17.95977,-4.29581 22.70977,-9.62601 5.18076,-5.79905 7.777,-12.48305 7.777,-20.04907 -0.006,-6.83637 -2.01311,-12.5563 -5.99538,-17.17151 z m -56.46674,-40.78089 h 11.65377 c 7.1382,0 12.23104,0.78239 15.21701,2.32665 3.00355,1.55599 4.50972,4.73829 4.50972,9.55862 0,4.81154 -1.63217,7.94988 -4.88772,9.39745 -3.25556,1.45049 -8.26929,2.17721 -15.00017,2.17721 h -11.49261 z m 32.23908,65.01441 c -3.46947,1.71715 -8.68246,2.56694 -15.62432,2.56694 h -16.61476 v -25.00712 h 14.2969 c 8.06416,0 13.94819,0.8029 17.62864,2.40284 3.67459,1.6058 5.51774,4.92289 5.51774,9.94834 -0.003,5.01666 -1.73473,8.38357 -5.2042,10.089 z"
         fill="#ffffff"
         id="path5-4"
         style="fill:#ffffff;fill-opacity:1;stroke-width:1.46515" /></g></g></svg>
